<mxfile host="app.diagrams.net" modified="2023-07-09T17:36:45.065Z" agent="Mozilla/5.0 (Windows NT 10.0; Win64; x64) AppleWebKit/537.36 (KHTML, like Gecko) Chrome/115.0.0.0 Safari/537.36" version="21.6.1" etag="6va1h3DTUY0klcQtW-m_" type="github">
  <diagram name="Page-1" id="mKQ4_8qwQsMxQs-5LEZG">
    <mxGraphModel>
      <root>
        <mxCell id="0" />
        <mxCell id="1" parent="0" />
      </root>
    </mxGraphModel>
  </diagram>
</mxfile>
